<svg width="728" height="90" viewBox="0 0 728 90" fill="none" xmlns="http://www.w3.org/2000/svg">
<rect width="728" height="90" fill="#6F6F6F"/>
<path d="M282.724 29.88V59H286.964V56.8C288.404 58.64 290.484 59.56 293.204 59.56C296.244 59.56 298.644 58.48 300.404 56.32C302.004 54.32 302.804 51.72 302.804 48.56C302.804 45.52 302.004 43 300.444 41C298.724 38.84 296.404 37.76 293.444 37.76C291.044 37.76 288.964 38.88 287.284 41.16V29.88H282.724ZM292.364 41.44C294.404 41.44 295.924 42.12 296.884 43.48C297.684 44.64 298.124 46.32 298.124 48.56C298.124 50.8 297.724 52.52 296.964 53.72C296.004 55.16 294.524 55.88 292.524 55.88C290.724 55.88 289.364 55.16 288.404 53.76C287.524 52.48 287.124 50.8 287.124 48.8V48.48C287.124 46.28 287.644 44.52 288.724 43.24C289.684 42.04 290.884 41.44 292.364 41.44ZM309.867 29.88C308.987 29.88 308.267 30.16 307.667 30.72C307.067 31.28 306.787 32 306.787 32.88C306.787 33.76 307.067 34.48 307.667 35.08C308.267 35.64 308.987 35.92 309.867 35.92C310.747 35.92 311.467 35.64 312.067 35.08C312.667 34.52 312.987 33.76 312.987 32.88C312.987 32 312.667 31.28 312.107 30.72C311.507 30.16 310.747 29.88 309.867 29.88ZM307.587 38.32V59H312.147V38.32H307.587ZM318.202 29.88V59H322.762V29.88H318.202ZM328.359 29.88V59H332.919V29.88H328.359ZM338.115 29.88V59H342.355V56.8C343.795 58.64 345.875 59.56 348.595 59.56C351.635 59.56 354.035 58.48 355.795 56.32C357.395 54.32 358.195 51.72 358.195 48.56C358.195 45.52 357.395 43 355.835 41C354.115 38.84 351.795 37.76 348.835 37.76C346.435 37.76 344.355 38.88 342.675 41.16V29.88H338.115ZM347.755 41.44C349.795 41.44 351.315 42.12 352.275 43.48C353.075 44.64 353.515 46.32 353.515 48.56C353.515 50.8 353.115 52.52 352.355 53.72C351.395 55.16 349.915 55.88 347.915 55.88C346.115 55.88 344.755 55.16 343.795 53.76C342.915 52.48 342.515 50.8 342.515 48.8V48.48C342.515 46.28 343.035 44.52 344.115 43.24C345.075 42.04 346.275 41.44 347.755 41.44ZM371.777 37.76C368.617 37.76 366.097 38.76 364.217 40.84C362.297 42.88 361.377 45.48 361.377 48.68C361.377 51.84 362.297 54.44 364.177 56.44C366.097 58.52 368.617 59.56 371.777 59.56C374.897 59.56 377.457 58.52 379.377 56.44C381.217 54.44 382.177 51.84 382.177 48.68C382.177 45.48 381.217 42.88 379.337 40.84C377.417 38.76 374.897 37.76 371.777 37.76ZM371.777 41.48C373.657 41.48 375.137 42.2 376.177 43.72C377.057 45 377.537 46.68 377.537 48.68C377.537 50.64 377.057 52.28 376.177 53.6C375.137 55.08 373.657 55.84 371.777 55.84C369.857 55.84 368.417 55.08 367.377 53.6C366.497 52.32 366.057 50.68 366.057 48.68C366.057 46.68 366.497 45 367.377 43.72C368.417 42.2 369.857 41.48 371.777 41.48ZM395.922 37.76C394.642 37.76 393.562 38.12 392.642 38.88C391.882 39.44 391.242 40.24 390.682 41.28V38.32H386.162V59H390.682V48.04C390.682 46.28 391.202 44.88 392.322 43.8C393.282 42.84 394.362 42.4 395.562 42.4C396.522 42.4 397.482 42.52 398.522 42.84V38.28C397.802 37.92 396.922 37.76 395.922 37.76ZM410.523 37.76C407.883 37.76 405.803 38.2 404.283 39.16C402.483 40.2 401.363 41.88 400.923 44.16L405.443 44.52C405.683 43.44 406.283 42.64 407.163 42.12C407.923 41.64 408.923 41.44 410.203 41.44C413.163 41.44 414.643 42.76 414.643 45.48V46.28L410.123 46.4C407.083 46.48 404.723 47.12 403.043 48.32C401.203 49.56 400.323 51.36 400.323 53.68C400.323 55.4 400.963 56.8 402.243 57.92C403.483 59 405.163 59.56 407.323 59.56C409.123 59.56 410.683 59.24 412.003 58.64C413.163 58.08 414.163 57.32 414.963 56.28V59H419.203V45.8C419.203 43.28 418.563 41.36 417.283 40.04C415.843 38.52 413.563 37.76 410.523 37.76ZM414.643 49.56V50.6C414.643 52.2 414.003 53.52 412.803 54.56C411.603 55.56 410.123 56.08 408.363 56.08C407.363 56.08 406.563 55.8 405.923 55.32C405.283 54.84 405.003 54.24 405.003 53.52C405.003 51.04 406.803 49.76 410.443 49.68L414.643 49.56ZM438.733 29.88V41.16C437.013 38.88 434.973 37.76 432.573 37.76C429.613 37.76 427.253 38.84 425.573 41C423.973 43 423.213 45.52 423.213 48.56C423.213 51.72 424.013 54.32 425.613 56.32C427.333 58.48 429.733 59.56 432.813 59.56C435.533 59.56 437.613 58.64 439.053 56.8V59H443.293V29.88H438.733ZM433.653 41.44C435.093 41.44 436.333 42.04 437.293 43.24C438.333 44.52 438.893 46.28 438.893 48.48V48.8C438.893 50.8 438.453 52.48 437.613 53.76C436.653 55.16 435.253 55.88 433.493 55.88C431.453 55.88 429.973 55.16 429.053 53.72C428.253 52.52 427.893 50.8 427.893 48.56C427.893 46.32 428.293 44.64 429.133 43.48C430.093 42.12 431.573 41.44 433.653 41.44Z" fill="white"/>
</svg>
