<svg width="728" height="90" viewBox="0 0 728 90" fill="none" xmlns="http://www.w3.org/2000/svg">
<rect width="728" height="90" fill="#6F6F6F"/>
<path d="M245.831 30.44V59H265.911V55H250.471V30.44H245.831ZM277.903 37.76C274.823 37.76 272.383 38.8 270.623 40.92C268.783 43 267.903 45.56 267.903 48.64C267.903 52.08 268.863 54.76 270.783 56.72C272.583 58.6 275.023 59.56 278.103 59.56C280.863 59.56 283.143 58.76 284.983 57.2C286.423 55.92 287.383 54.28 287.863 52.36H283.303C282.743 53.52 282.143 54.36 281.463 54.88C280.583 55.52 279.463 55.84 278.063 55.84C276.423 55.84 275.143 55.32 274.263 54.32C273.383 53.32 272.863 51.84 272.703 49.92H288.183C288.183 46.2 287.343 43.28 285.703 41.2C283.903 38.88 281.303 37.76 277.903 37.76ZM278.023 41.48C281.223 41.48 283.023 43.12 283.423 46.48H272.783C273.063 44.84 273.623 43.6 274.463 42.76C275.343 41.88 276.503 41.48 278.023 41.48ZM301.198 37.76C298.558 37.76 296.478 38.2 294.958 39.16C293.158 40.2 292.038 41.88 291.598 44.16L296.118 44.52C296.358 43.44 296.958 42.64 297.838 42.12C298.598 41.64 299.598 41.44 300.878 41.44C303.838 41.44 305.318 42.76 305.318 45.48V46.28L300.798 46.4C297.758 46.48 295.398 47.12 293.718 48.32C291.878 49.56 290.998 51.36 290.998 53.68C290.998 55.4 291.638 56.8 292.918 57.92C294.158 59 295.838 59.56 297.998 59.56C299.798 59.56 301.358 59.24 302.678 58.64C303.838 58.08 304.838 57.32 305.638 56.28V59H309.878V45.8C309.878 43.28 309.238 41.36 307.958 40.04C306.518 38.52 304.238 37.76 301.198 37.76ZM305.318 49.56V50.6C305.318 52.2 304.678 53.52 303.478 54.56C302.278 55.56 300.798 56.08 299.038 56.08C298.038 56.08 297.238 55.8 296.598 55.32C295.958 54.84 295.678 54.24 295.678 53.52C295.678 51.04 297.478 49.76 301.118 49.68L305.318 49.56ZM329.409 29.88V41.16C327.689 38.88 325.649 37.76 323.249 37.76C320.289 37.76 317.929 38.84 316.249 41C314.649 43 313.889 45.52 313.889 48.56C313.889 51.72 314.689 54.32 316.289 56.32C318.009 58.48 320.409 59.56 323.489 59.56C326.209 59.56 328.289 58.64 329.729 56.8V59H333.969V29.88H329.409ZM324.329 41.44C325.769 41.44 327.009 42.04 327.969 43.24C329.009 44.52 329.569 46.28 329.569 48.48V48.8C329.569 50.8 329.129 52.48 328.289 53.76C327.329 55.16 325.929 55.88 324.169 55.88C322.129 55.88 320.649 55.16 319.729 53.72C318.929 52.52 318.569 50.8 318.569 48.56C318.569 46.32 318.969 44.64 319.809 43.48C320.769 42.12 322.249 41.44 324.329 41.44ZM347.552 37.76C344.472 37.76 342.032 38.8 340.272 40.92C338.432 43 337.552 45.56 337.552 48.64C337.552 52.08 338.512 54.76 340.432 56.72C342.232 58.6 344.672 59.56 347.752 59.56C350.512 59.56 352.792 58.76 354.632 57.2C356.072 55.92 357.032 54.28 357.512 52.36H352.952C352.392 53.52 351.792 54.36 351.112 54.88C350.232 55.52 349.112 55.84 347.712 55.84C346.072 55.84 344.792 55.32 343.912 54.32C343.032 53.32 342.512 51.84 342.352 49.92H357.832C357.832 46.2 356.992 43.28 355.352 41.2C353.552 38.88 350.952 37.76 347.552 37.76ZM347.672 41.48C350.872 41.48 352.672 43.12 353.072 46.48H342.432C342.712 44.84 343.272 43.6 344.112 42.76C344.992 41.88 346.152 41.48 347.672 41.48ZM371.207 37.76C369.927 37.76 368.847 38.12 367.927 38.88C367.167 39.44 366.527 40.24 365.967 41.28V38.32H361.447V59H365.967V48.04C365.967 46.28 366.487 44.88 367.607 43.8C368.567 42.84 369.647 42.4 370.847 42.4C371.807 42.4 372.767 42.52 373.807 42.84V38.28C373.087 37.92 372.207 37.76 371.207 37.76ZM376.408 29.88V59H380.648V56.8C382.088 58.64 384.168 59.56 386.888 59.56C389.928 59.56 392.328 58.48 394.088 56.32C395.688 54.32 396.488 51.72 396.488 48.56C396.488 45.52 395.688 43 394.128 41C392.408 38.84 390.088 37.76 387.128 37.76C384.728 37.76 382.648 38.88 380.968 41.16V29.88H376.408ZM386.048 41.44C388.088 41.44 389.608 42.12 390.568 43.48C391.368 44.64 391.808 46.32 391.808 48.56C391.808 50.8 391.408 52.52 390.648 53.72C389.688 55.16 388.208 55.88 386.208 55.88C384.408 55.88 383.048 55.16 382.088 53.76C381.208 52.48 380.808 50.8 380.808 48.8V48.48C380.808 46.28 381.328 44.52 382.408 43.24C383.368 42.04 384.568 41.44 386.048 41.44ZM410.07 37.76C406.91 37.76 404.39 38.76 402.51 40.84C400.59 42.88 399.67 45.48 399.67 48.68C399.67 51.84 400.59 54.44 402.47 56.44C404.39 58.52 406.91 59.56 410.07 59.56C413.19 59.56 415.75 58.52 417.67 56.44C419.51 54.44 420.47 51.84 420.47 48.68C420.47 45.48 419.51 42.88 417.63 40.84C415.71 38.76 413.19 37.76 410.07 37.76ZM410.07 41.48C411.95 41.48 413.43 42.2 414.47 43.72C415.35 45 415.83 46.68 415.83 48.68C415.83 50.64 415.35 52.28 414.47 53.6C413.43 55.08 411.95 55.84 410.07 55.84C408.15 55.84 406.71 55.08 405.67 53.6C404.79 52.32 404.35 50.68 404.35 48.68C404.35 46.68 404.79 45 405.67 43.72C406.71 42.2 408.15 41.48 410.07 41.48ZM433.855 37.76C431.215 37.76 429.135 38.2 427.615 39.16C425.815 40.2 424.695 41.88 424.255 44.16L428.775 44.52C429.015 43.44 429.615 42.64 430.495 42.12C431.255 41.64 432.255 41.44 433.535 41.44C436.495 41.44 437.975 42.76 437.975 45.48V46.28L433.455 46.4C430.415 46.48 428.055 47.12 426.375 48.32C424.535 49.56 423.655 51.36 423.655 53.68C423.655 55.4 424.295 56.8 425.575 57.92C426.815 59 428.495 59.56 430.655 59.56C432.455 59.56 434.015 59.24 435.335 58.64C436.495 58.08 437.495 57.32 438.295 56.28V59H442.535V45.8C442.535 43.28 441.895 41.36 440.615 40.04C439.175 38.52 436.895 37.76 433.855 37.76ZM437.975 49.56V50.6C437.975 52.2 437.335 53.52 436.135 54.56C434.935 55.56 433.455 56.08 431.695 56.08C430.695 56.08 429.895 55.8 429.255 55.32C428.615 54.84 428.335 54.24 428.335 53.52C428.335 51.04 430.135 49.76 433.775 49.68L437.975 49.56ZM457.105 37.76C455.825 37.76 454.745 38.12 453.825 38.88C453.065 39.44 452.425 40.24 451.865 41.28V38.32H447.345V59H451.865V48.04C451.865 46.28 452.385 44.88 453.505 43.8C454.465 42.84 455.545 42.4 456.745 42.4C457.705 42.4 458.665 42.52 459.705 42.84V38.28C458.985 37.92 458.105 37.76 457.105 37.76ZM477.026 29.88V41.16C475.306 38.88 473.266 37.76 470.866 37.76C467.906 37.76 465.546 38.84 463.866 41C462.266 43 461.506 45.52 461.506 48.56C461.506 51.72 462.306 54.32 463.906 56.32C465.626 58.48 468.026 59.56 471.106 59.56C473.826 59.56 475.906 58.64 477.346 56.8V59H481.586V29.88H477.026ZM471.946 41.44C473.386 41.44 474.626 42.04 475.586 43.24C476.626 44.52 477.186 46.28 477.186 48.48V48.8C477.186 50.8 476.746 52.48 475.906 53.76C474.946 55.16 473.546 55.88 471.786 55.88C469.746 55.88 468.266 55.16 467.346 53.72C466.546 52.52 466.186 50.8 466.186 48.56C466.186 46.32 466.586 44.64 467.426 43.48C468.386 42.12 469.866 41.44 471.946 41.44Z" fill="white"/>
</svg>
