<svg width="300" height="100" viewBox="0 0 300 100" fill="none" xmlns="http://www.w3.org/2000/svg">
<rect width="300" height="100" fill="#6F6F6F"/>
<path d="M44.8234 35.44V64H64.9034V60H49.4634V35.44H44.8234ZM76.8953 42.76C73.8153 42.76 71.3753 43.8 69.6153 45.92C67.7753 48 66.8953 50.56 66.8953 53.64C66.8953 57.08 67.8553 59.76 69.7753 61.72C71.5753 63.6 74.0153 64.56 77.0953 64.56C79.8553 64.56 82.1353 63.76 83.9753 62.2C85.4153 60.92 86.3753 59.28 86.8553 57.36H82.2953C81.7353 58.52 81.1353 59.36 80.4553 59.88C79.5753 60.52 78.4553 60.84 77.0553 60.84C75.4153 60.84 74.1353 60.32 73.2553 59.32C72.3753 58.32 71.8553 56.84 71.6953 54.92H87.1753C87.1753 51.2 86.3353 48.28 84.6953 46.2C82.8953 43.88 80.2953 42.76 76.8953 42.76ZM77.0153 46.48C80.2153 46.48 82.0153 48.12 82.4153 51.48H71.7753C72.0553 49.84 72.6153 48.6 73.4553 47.76C74.3353 46.88 75.4953 46.48 77.0153 46.48ZM100.191 42.76C97.5506 42.76 95.4706 43.2 93.9506 44.16C92.1506 45.2 91.0306 46.88 90.5906 49.16L95.1106 49.52C95.3506 48.44 95.9506 47.64 96.8306 47.12C97.5906 46.64 98.5906 46.44 99.8706 46.44C102.831 46.44 104.311 47.76 104.311 50.48V51.28L99.7906 51.4C96.7506 51.48 94.3906 52.12 92.7106 53.32C90.8706 54.56 89.9906 56.36 89.9906 58.68C89.9906 60.4 90.6306 61.8 91.9106 62.92C93.1506 64 94.8306 64.56 96.9906 64.56C98.7906 64.56 100.351 64.24 101.671 63.64C102.831 63.08 103.831 62.32 104.631 61.28V64H108.871V50.8C108.871 48.28 108.231 46.36 106.951 45.04C105.511 43.52 103.231 42.76 100.191 42.76ZM104.311 54.56V55.6C104.311 57.2 103.671 58.52 102.471 59.56C101.271 60.56 99.7906 61.08 98.0306 61.08C97.0306 61.08 96.2306 60.8 95.5906 60.32C94.9506 59.84 94.6706 59.24 94.6706 58.52C94.6706 56.04 96.4706 54.76 100.111 54.68L104.311 54.56ZM128.401 34.88V46.16C126.681 43.88 124.641 42.76 122.241 42.76C119.281 42.76 116.921 43.84 115.241 46C113.641 48 112.881 50.52 112.881 53.56C112.881 56.72 113.681 59.32 115.281 61.32C117.001 63.48 119.401 64.56 122.481 64.56C125.201 64.56 127.281 63.64 128.721 61.8V64H132.961V34.88H128.401ZM123.321 46.44C124.761 46.44 126.001 47.04 126.961 48.24C128.001 49.52 128.561 51.28 128.561 53.48V53.8C128.561 55.8 128.121 57.48 127.281 58.76C126.321 60.16 124.921 60.88 123.161 60.88C121.121 60.88 119.641 60.16 118.721 58.72C117.921 57.52 117.561 55.8 117.561 53.56C117.561 51.32 117.961 49.64 118.801 48.48C119.761 47.12 121.241 46.44 123.321 46.44ZM146.544 42.76C143.464 42.76 141.024 43.8 139.264 45.92C137.424 48 136.544 50.56 136.544 53.64C136.544 57.08 137.504 59.76 139.424 61.72C141.224 63.6 143.664 64.56 146.744 64.56C149.504 64.56 151.784 63.76 153.624 62.2C155.064 60.92 156.024 59.28 156.504 57.36H151.944C151.384 58.52 150.784 59.36 150.104 59.88C149.224 60.52 148.104 60.84 146.704 60.84C145.064 60.84 143.784 60.32 142.904 59.32C142.024 58.32 141.504 56.84 141.344 54.92H156.824C156.824 51.2 155.984 48.28 154.344 46.2C152.544 43.88 149.944 42.76 146.544 42.76ZM146.664 46.48C149.864 46.48 151.664 48.12 152.064 51.48H141.424C141.704 49.84 142.264 48.6 143.104 47.76C143.984 46.88 145.144 46.48 146.664 46.48ZM170.199 42.76C168.919 42.76 167.839 43.12 166.919 43.88C166.159 44.44 165.519 45.24 164.959 46.28V43.32H160.439V64H164.959V53.04C164.959 51.28 165.479 49.88 166.599 48.8C167.559 47.84 168.639 47.4 169.839 47.4C170.799 47.4 171.759 47.52 172.799 47.84V43.28C172.079 42.92 171.199 42.76 170.199 42.76ZM175.4 34.88V64H179.64V61.8C181.08 63.64 183.16 64.56 185.88 64.56C188.92 64.56 191.32 63.48 193.08 61.32C194.68 59.32 195.48 56.72 195.48 53.56C195.48 50.52 194.68 48 193.12 46C191.4 43.84 189.08 42.76 186.12 42.76C183.72 42.76 181.64 43.88 179.96 46.16V34.88H175.4ZM185.04 46.44C187.08 46.44 188.6 47.12 189.56 48.48C190.36 49.64 190.8 51.32 190.8 53.56C190.8 55.8 190.4 57.52 189.64 58.72C188.68 60.16 187.2 60.88 185.2 60.88C183.4 60.88 182.04 60.16 181.08 58.76C180.2 57.48 179.8 55.8 179.8 53.8V53.48C179.8 51.28 180.32 49.52 181.4 48.24C182.36 47.04 183.56 46.44 185.04 46.44ZM208.863 42.76C206.223 42.76 204.143 43.2 202.623 44.16C200.823 45.2 199.702 46.88 199.263 49.16L203.783 49.52C204.023 48.44 204.623 47.64 205.503 47.12C206.263 46.64 207.263 46.44 208.543 46.44C211.503 46.44 212.983 47.76 212.983 50.48V51.28L208.463 51.4C205.423 51.48 203.063 52.12 201.383 53.32C199.543 54.56 198.663 56.36 198.663 58.68C198.663 60.4 199.303 61.8 200.583 62.92C201.823 64 203.503 64.56 205.663 64.56C207.463 64.56 209.023 64.24 210.343 63.64C211.503 63.08 212.503 62.32 213.303 61.28V64H217.543V50.8C217.543 48.28 216.903 46.36 215.623 45.04C214.183 43.52 211.903 42.76 208.863 42.76ZM212.983 54.56V55.6C212.983 57.2 212.343 58.52 211.143 59.56C209.943 60.56 208.463 61.08 206.703 61.08C205.703 61.08 204.903 60.8 204.263 60.32C203.623 59.84 203.343 59.24 203.343 58.52C203.343 56.04 205.143 54.76 208.783 54.68L212.983 54.56ZM232.113 42.76C230.833 42.76 229.753 43.12 228.833 43.88C228.073 44.44 227.433 45.24 226.873 46.28V43.32H222.353V64H226.873V53.04C226.873 51.28 227.393 49.88 228.513 48.8C229.473 47.84 230.553 47.4 231.753 47.4C232.713 47.4 233.673 47.52 234.713 47.84V43.28C233.993 42.92 233.113 42.76 232.113 42.76ZM252.034 34.88V46.16C250.314 43.88 248.274 42.76 245.874 42.76C242.914 42.76 240.554 43.84 238.874 46C237.274 48 236.514 50.52 236.514 53.56C236.514 56.72 237.314 59.32 238.914 61.32C240.634 63.48 243.034 64.56 246.114 64.56C248.834 64.56 250.914 63.64 252.354 61.8V64H256.594V34.88H252.034ZM246.954 46.44C248.394 46.44 249.634 47.04 250.594 48.24C251.634 49.52 252.194 51.28 252.194 53.48V53.8C252.194 55.8 251.754 57.48 250.914 58.76C249.954 60.16 248.554 60.88 246.794 60.88C244.754 60.88 243.274 60.16 242.354 58.72C241.554 57.52 241.194 55.8 241.194 53.56C241.194 51.32 241.594 49.64 242.434 48.48C243.394 47.12 244.874 46.44 246.954 46.44Z" fill="white"/>
</svg>
