<svg width="300" height="100" viewBox="0 0 300 100" fill="none" xmlns="http://www.w3.org/2000/svg">
<rect width="300" height="100" fill="#6F6F6F"/>
<path d="M69.7242 34.88V64H73.9642V61.8C75.4042 63.64 77.4842 64.56 80.2042 64.56C83.2442 64.56 85.6442 63.48 87.4042 61.32C89.0042 59.32 89.8042 56.72 89.8042 53.56C89.8042 50.52 89.0042 48 87.4442 46C85.7242 43.84 83.4042 42.76 80.4442 42.76C78.0442 42.76 75.9642 43.88 74.2842 46.16V34.88H69.7242ZM79.3642 46.44C81.4042 46.44 82.9242 47.12 83.8842 48.48C84.6842 49.64 85.1242 51.32 85.1242 53.56C85.1242 55.8 84.7242 57.52 83.9642 58.72C83.0042 60.16 81.5242 60.88 79.5242 60.88C77.7242 60.88 76.3642 60.16 75.4042 58.76C74.5242 57.48 74.1242 55.8 74.1242 53.8V53.48C74.1242 51.28 74.6442 49.52 75.7242 48.24C76.6842 47.04 77.8842 46.44 79.3642 46.44ZM96.8667 34.88C95.9867 34.88 95.2667 35.16 94.6667 35.72C94.0667 36.28 93.7867 37 93.7867 37.88C93.7867 38.76 94.0667 39.48 94.6667 40.08C95.2667 40.64 95.9867 40.92 96.8667 40.92C97.7467 40.92 98.4667 40.64 99.0667 40.08C99.6667 39.52 99.9867 38.76 99.9867 37.88C99.9867 37 99.6667 36.28 99.1067 35.72C98.5067 35.16 97.7467 34.88 96.8667 34.88ZM94.5867 43.32V64H99.1467V43.32H94.5867ZM105.202 34.88V64H109.762V34.88H105.202ZM115.359 34.88V64H119.919V34.88H115.359ZM125.115 34.88V64H129.355V61.8C130.795 63.64 132.875 64.56 135.595 64.56C138.635 64.56 141.035 63.48 142.795 61.32C144.395 59.32 145.195 56.72 145.195 53.56C145.195 50.52 144.395 48 142.835 46C141.115 43.84 138.795 42.76 135.835 42.76C133.435 42.76 131.355 43.88 129.675 46.16V34.88H125.115ZM134.755 46.44C136.795 46.44 138.315 47.12 139.275 48.48C140.075 49.64 140.515 51.32 140.515 53.56C140.515 55.8 140.115 57.52 139.355 58.72C138.395 60.16 136.915 60.88 134.915 60.88C133.115 60.88 131.755 60.16 130.795 58.76C129.915 57.48 129.515 55.8 129.515 53.8V53.48C129.515 51.28 130.035 49.52 131.115 48.24C132.075 47.04 133.275 46.44 134.755 46.44ZM158.777 42.76C155.617 42.76 153.097 43.76 151.217 45.84C149.297 47.88 148.377 50.48 148.377 53.68C148.377 56.84 149.297 59.44 151.177 61.44C153.097 63.52 155.617 64.56 158.777 64.56C161.897 64.56 164.457 63.52 166.377 61.44C168.217 59.44 169.177 56.84 169.177 53.68C169.177 50.48 168.217 47.88 166.337 45.84C164.417 43.76 161.897 42.76 158.777 42.76ZM158.777 46.48C160.657 46.48 162.137 47.2 163.177 48.72C164.057 50 164.537 51.68 164.537 53.68C164.537 55.64 164.057 57.28 163.177 58.6C162.137 60.08 160.657 60.84 158.777 60.84C156.857 60.84 155.417 60.08 154.377 58.6C153.497 57.32 153.057 55.68 153.057 53.68C153.057 51.68 153.497 50 154.377 48.72C155.417 47.2 156.857 46.48 158.777 46.48ZM182.922 42.76C181.642 42.76 180.562 43.12 179.642 43.88C178.882 44.44 178.242 45.24 177.682 46.28V43.32H173.162V64H177.682V53.04C177.682 51.28 178.202 49.88 179.322 48.8C180.282 47.84 181.362 47.4 182.562 47.4C183.522 47.4 184.482 47.52 185.522 47.84V43.28C184.802 42.92 183.922 42.76 182.922 42.76ZM197.523 42.76C194.883 42.76 192.803 43.2 191.283 44.16C189.483 45.2 188.363 46.88 187.923 49.16L192.443 49.52C192.683 48.44 193.283 47.64 194.163 47.12C194.923 46.64 195.923 46.44 197.203 46.44C200.163 46.44 201.643 47.76 201.643 50.48V51.28L197.123 51.4C194.083 51.48 191.723 52.12 190.043 53.32C188.203 54.56 187.323 56.36 187.323 58.68C187.323 60.4 187.963 61.8 189.243 62.92C190.483 64 192.163 64.56 194.323 64.56C196.123 64.56 197.683 64.24 199.003 63.64C200.163 63.08 201.163 62.32 201.963 61.28V64H206.203V50.8C206.203 48.28 205.563 46.36 204.283 45.04C202.843 43.52 200.563 42.76 197.523 42.76ZM201.643 54.56V55.6C201.643 57.2 201.003 58.52 199.803 59.56C198.603 60.56 197.123 61.08 195.363 61.08C194.363 61.08 193.563 60.8 192.923 60.32C192.283 59.84 192.003 59.24 192.003 58.52C192.003 56.04 193.803 54.76 197.443 54.68L201.643 54.56ZM225.733 34.88V46.16C224.013 43.88 221.973 42.76 219.573 42.76C216.613 42.76 214.253 43.84 212.573 46C210.973 48 210.213 50.52 210.213 53.56C210.213 56.72 211.013 59.32 212.613 61.32C214.333 63.48 216.733 64.56 219.813 64.56C222.533 64.56 224.613 63.64 226.053 61.8V64H230.293V34.88H225.733ZM220.653 46.44C222.093 46.44 223.333 47.04 224.293 48.24C225.333 49.52 225.893 51.28 225.893 53.48V53.8C225.893 55.8 225.453 57.48 224.613 58.76C223.653 60.16 222.253 60.88 220.493 60.88C218.453 60.88 216.973 60.16 216.053 58.72C215.253 57.52 214.893 55.8 214.893 53.56C214.893 51.32 215.293 49.64 216.133 48.48C217.093 47.12 218.573 46.44 220.653 46.44Z" fill="white"/>
</svg>
